<svg width="20" height="20" xmlns="http://www.w3.org/2000/svg">
 <g id="Layer_1">
  <title>Layer 1</title>
  <path id="svg_1" d="m10.02499,1.3579c-0.17895,0 -0.33816,0.07346 -0.47249,0.20671c-0.13422,0.13314 -0.24523,0.32391 -0.33762,0.56217c-0.18474,0.47645 -0.29838,1.14575 -0.36053,1.94731c-0.06204,0.80001 -0.07249,1.73155 -0.04672,2.72875c-2.21045,0.90682 -6.69365,2.77916 -7.05379,3.19722c-0.47949,0.55659 -0.32456,1.19448 -0.13134,1.61793l7.37025,-1.50009c0.15579,1.95487 0.3773,3.89107 0.57033,5.40823c-0.72077,0.21094 -2.0662,0.62746 -2.34392,0.88575c-0.38258,0.35581 -0.38257,1.50491 -0.38257,1.50491l3.01651,-0.24534c0.07105,0.49532 0.11548,0.78433 0.11548,0.78433l0.00441,0.02608l0.0238,0l0.05553,0l0.0238,0l0.00441,-0.02608c0,0 0.04435,-0.28902 0.11548,-0.78433l3.01739,0.24534c0,0 0,-1.1491 -0.38257,-1.50491c-0.27782,-0.25839 -1.62424,-0.67585 -2.3448,-0.88672c0.19263,-1.5125 0.41375,-3.4413 0.56945,-5.38987l7.28387,1.4827c0.19322,-0.42345 0.34902,-1.06134 -0.13046,-1.61793c-0.35569,-0.41288 -4.73056,-2.24358 -6.96829,-3.16245c0.02674,-1.01012 0.01691,-1.95435 -0.04584,-2.76352l0,-0.00193c-0.06219,-0.80067 -0.17595,-1.46932 -0.36053,-1.94538c-0.09235,-0.23819 -0.20247,-0.42899 -0.33673,-0.56217c-0.13433,-0.13325 -0.29354,-0.20671 -0.47249,-0.20671l0,0z" stroke="#000" fill="#fff"/>
 </g>
</svg>