<svg id="Layer_1" data-name="Layer 1" xmlns="http://www.w3.org/2000/svg" viewBox="0 0 512 512"><defs><style>.cls-1{fill:#141f38;}</style></defs><title>spaceship_style_2</title><path class="cls-1" d="M448,294.4c-27.3-27.3-54.49-61.55-76.8-94.86v-65s0-75.46-89-127.45a51.88,51.88,0,0,0-52.34,0c-89,52-89,127.45-89,127.45v65C118.49,232.85,91.3,267.1,64,294.4,0,358.4,0,435.2,0,435.2a25.6,25.6,0,0,0,25.6,25.6H172.79l-1,1.45C157.65,483.52,172.9,512,198.45,512H313.55c25.56,0,40.8-28.48,26.63-49.75l-1-1.45H486.4A25.6,25.6,0,0,0,512,435.2S512,358.4,448,294.4Zm-18.1,18.1A195.58,195.58,0,0,1,475.37,384H371.2V243.85C389.84,268.81,410.1,292.71,429.9,312.5Zm-263.5-178c0-.61.87-61.27,76.34-105.34a26.28,26.28,0,0,1,26.53,0c74.15,43.3,76.28,103.08,76.34,105.34V435.2H166.4Zm-84.3,178c19.8-19.8,40.05-43.69,58.7-68.65V384H36.44A195.8,195.8,0,0,1,82.1,312.5ZM25.6,435.2c0-.25.11-10.25,3.42-25.6H140.8v25.6ZM319.19,483a6.09,6.09,0,0,1-5.64,3.38H198.45a6.4,6.4,0,0,1-5.33-10l8.53-12.8A6.39,6.39,0,0,1,207,460.8h98a6.39,6.39,0,0,1,5.32,2.85l8.53,12.8A6.09,6.09,0,0,1,319.19,483Zm52-47.82V409.6H482.83c3.36,15.37,3.57,25.39,3.57,25.6ZM320,125.94s0-41.9-49.43-70.79a29,29,0,0,0-29.13,0C192,84,192,125.94,192,125.94a14.86,14.86,0,0,0,14.86,14.86h98.28A14.86,14.86,0,0,0,320,125.94ZM220.19,115.2c3.69-10.15,12.62-25.36,34.16-37.95a3.39,3.39,0,0,1,3.3,0c21.54,12.59,30.47,27.79,34.16,37.95Z"/></svg>