<svg width="20" height="20" xmlns="http://www.w3.org/2000/svg">
 <g id="Layer_1">
  <title>Layer 1</title>
  <path id="svg_12" d="m31.27552,11.55136c-0.02071,0 -0.0375,0.01679 -0.0375,0.0375c0,0.02072 0.0375,0.09061 0.0375,0.09061s0.0375,-0.06989 0.0375,-0.09061c0,-0.02071 -0.01679,-0.0375 -0.0375,-0.0375zm0,0.05542c-0.0099,0 -0.01792,-0.00802 -0.01792,-0.01792s0.00803,-0.01792 0.01792,-0.01792s0.01792,0.00803 0.01792,0.01792s-0.00803,0.01792 -0.01792,0.01792z" stroke="#000" fill="#fff"/>
  <path style="vector-effect: non-scaling-stroke;" stroke="#000" id="svg_14" d="m-8.19454,2.68649c0,0.02072 0.0375,0.09061 0.0375,0.09061s0.0375,-0.06989 0.0375,-0.09061l-0.075,0zm0.01958,0s0.00803,-0.01792 0.01792,-0.01792s0.01792,0.00803 0.01792,0.01792l-0.03584,0z" fill="#fff"/>
  <path id="svg_17" d="m-4.49779,8.27441c-0.02071,0 -0.0375,0.01679 -0.0375,0.0375c0,0.02072 0.0375,0.09061 0.0375,0.09061s0.0375,-0.06989 0.0375,-0.09061c0,-0.02071 -0.01679,-0.0375 -0.0375,-0.0375zm0,0.05542c-0.0099,0 -0.01792,-0.00802 -0.01792,-0.01792s0.00803,-0.01792 0.01792,-0.01792s0.01792,0.00803 0.01792,0.01792s-0.00803,0.01792 -0.01792,0.01792z" stroke="#000" fill="#fff"/>
  <path stroke="#000" id="svg_19" d="m13.99612,2.87285c-0.67689,-0.31316 -1.49216,-0.04427 -1.82209,0.60353c-0.32856,0.6478 -0.04499,1.42646 0.6319,1.74026c2.12338,0.987 3.58896,3.0632 3.5876,5.46949c-0.00682,3.35552 -2.84936,6.07041 -6.36197,6.07627c-3.5133,-0.00651 -6.35584,-2.7214 -6.36265,-6.07627c-0.00136,-2.40759 1.4649,-4.48575 3.59033,-5.47079c0.67826,-0.31381 0.95978,-1.09247 0.6319,-1.74026c-0.32856,-0.6465 -1.14247,-0.91733 -1.82072,-0.60353c-3.03477,1.40302 -5.12748,4.37703 -5.12884,7.81458c0.00136,4.79435 4.06885,8.67983 9.08999,8.68113c5.02046,-0.0013 9.08863,-3.88678 9.08931,-8.68113c-0.00136,-3.43625 -2.09135,-6.40831 -5.12475,-7.81328zm-3.96456,6.40245c0.75256,0 1.36265,-0.58204 1.36265,-1.3021l0,-6.07692c0,-0.71941 -0.61009,-1.30145 -1.36265,-1.30145c-0.75392,0 -1.36333,0.58269 -1.36333,1.30145l0,6.07627c0,0.72006 0.60941,1.30276 1.36333,1.30276z" fill="#fff"/>
 </g>
</svg>