<!-- <svg fill="#000000" version="1.1" id="Capa_1" xmlns="http://www.w3.org/2000/svg" xmlns:xlink="http://www.w3.org/1999/xlink" viewBox="0 0 592.875 592.875" xml:space="preserve"><g id="SVGRepo_bgCarrier" stroke-width="0"></g><g id="SVGRepo_tracerCarrier" stroke-linecap="round" stroke-linejoin="round"></g><g id="SVGRepo_iconCarrier"> <g> <g> <path d="M335.64,554.625c5.288,0,9.562-4.284,9.562-9.562h41.482c3.069,0,5.967-1.482,7.765-3.979 c1.798-2.495,2.285-5.708,1.311-8.615l-57.586-172.297l-9.858-263.093c-0.02-0.66-0.115-1.31-0.269-1.941l-21.793-87.87 C305.203,2.993,301.369,0,296.979,0c-0.019,0-0.048,0-0.066,0c-4.418,0.029-8.243,3.089-9.247,7.392l-21.841,93.655 c-0.144,0.583-0.22,1.186-0.239,1.788L255.43,352.952l-1.349,6.129l-56.983,173.445c-0.956,2.916-0.459,6.11,1.349,8.587 c1.798,2.486,4.676,3.959,7.746,3.959h41.453c0,2.467,0.957,4.839,2.659,6.617c1.798,1.874,4.293,2.936,6.895,2.936h10.328 c-0.727,0.105-1.32,0.421-1.693,1.271l-13.693,30.323c-0.622,1.473-0.478,3.175,0.411,4.514s2.391,2.142,3.997,2.142l0,0h26.737 l0,0c1.597,0,3.079-0.383,3.968-1.712c0.89-1.329,1.052-2.591,0.459-4.063l-1.788-4.274c0.603,0.277,1.243,0.487,1.922,0.487l0,0 l0,0h20.865c1.014,0,1.903-0.564,2.706-1.271l-1.884,4.169c-0.621,1.473-0.479,3.175,0.411,4.514 c0.88,1.339,2.381,2.151,3.987,2.151l0,0l0,0h26.728l0,0l0,0c1.597,0,3.079-0.383,3.969-1.702 c0.889-1.319,1.052-2.592,0.459-4.064l-13.034-31.145c-0.373-0.918-1.014-1.243-1.808-1.339h5.212 C335.526,554.635,335.602,554.625,335.64,554.625z M276.333,456.935c0-10.921,8.855-19.775,19.775-19.775 c10.921,0,19.775,8.854,19.775,19.775c0,10.92-8.854,19.775-19.775,19.775C285.188,476.71,276.333,467.864,276.333,456.935z M283.458,576.647c-0.028,0.067-0.009,0.144-0.028,0.21l-8.75-20.894c-0.373-0.918-1.014-1.243-1.807-1.339h19.374 L283.458,576.647z M313.388,577.68c-0.01-0.659-0.019-1.348-0.248-1.893l-8.319-21.162h20.1c-0.727,0.105-1.319,0.421-1.692,1.271 L313.388,577.68z"></path> </g> </g> </g></svg> -->

<!-- <svg viewBox="0 0 512 512" xmlns="http://www.w3.org/2000/svg" fill="#000000"><g id="SVGRepo_bgCarrier" stroke-width="0"></g><g id="SVGRepo_tracerCarrier" stroke-linecap="round" stroke-linejoin="round"></g><g id="SVGRepo_iconCarrier"><path fill="#D7E0E4" d="M256 32a224 224 0 0 0-161.393 69.035h323.045A224 224 0 0 0 256 32zM79.148 118.965a224 224 0 0 0-16.976 25.16H449.74a224 224 0 0 0-16.699-25.16H79.148zm-27.222 45.16A224 224 0 0 0 43.3 186.25h425.271a224 224 0 0 0-8.586-22.125H51.926zM36.783 210.25a224 224 0 0 0-3.02 19.125h444.368a224 224 0 0 0-3.113-19.125H36.783zm-4.752 45.125A224 224 0 0 0 32 256a224 224 0 0 0 .64 16.5h446.534A224 224 0 0 0 480 256a224 224 0 0 0-.021-.625H32.03zm4.67 45.125a224 224 0 0 0 3.395 15.125h431.578a224 224 0 0 0 3.861-15.125H36.701zm14.307 45.125a224 224 0 0 0 6.017 13.125H454.82a224 224 0 0 0 6.342-13.125H51.008zm26.316 45.125a224 224 0 0 0 9.04 11.125H425.86a224 224 0 0 0 8.727-11.125H77.324zm45.62 45.125A224 224 0 0 0 136.247 445h239.89a224 224 0 0 0 12.936-9.125h-266.13z"></path></g></svg> -->

<!-- <svg viewBox="0 0 16 16" fill="none" xmlns="http://www.w3.org/2000/svg"><g id="SVGRepo_bgCarrier" stroke-width="0"></g><g id="SVGRepo_tracerCarrier" stroke-linecap="round" stroke-linejoin="round"></g><g id="SVGRepo_iconCarrier"> <path d="M3 5C3 2.23858 5.23858 0 8 0C10.7614 0 13 2.23858 13 5V8L15 10V12H1V10L3 8V5Z" fill="#CDD7DA"></path> <path d="M7.99999 16C6.69378 16 5.58254 15.1652 5.1707 14H10.8293C10.4175 15.1652 9.30621 16 7.99999 16Z" fill="#D7E0E4"></path> </g></svg> -->

<!-- <svg viewBox="0 0 16 16" fill="none" xmlns="http://www.w3.org/2000/svg"><g id="SVGRepo_bgCarrier" stroke-width="0"></g><g id="SVGRepo_tracerCarrier" stroke-linecap="round" stroke-linejoin="round"></g><g id="SVGRepo_iconCarrier"> <path d="M0 8V10L16 10V8L8 0L0 8Z" fill="#CDD7DA"></path> <path d="M16 12H0V14H16V12Z" fill="#000000"></path> </g></svg> -->

<!-- <svg viewBox="0 0 16 16" fill="none" xmlns="http://www.w3.org/2000/svg"><g id="SVGRepo_bgCarrier" stroke-width="0"></g><g id="SVGRepo_tracerCarrier" stroke-linecap="round" stroke-linejoin="round"></g><g id="SVGRepo_iconCarrier"> <path fill-rule="evenodd" clip-rule="evenodd" d="M2 6C2 2.68629 4.68629 0 8 0C11.3137 0 14 2.68629 14 6V16H12L10 14L8 16L6 14L4 16H2V6ZM7 6C7 6.55228 6.55228 7 6 7C5.44772 7 5 6.55228 5 6C5 5.44772 5.44772 5 6 5C6.55228 5 7 5.44772 7 6ZM10 7C10.5523 7 11 6.55228 11 6C11 5.44772 10.5523 5 10 5C9.44772 5 9 5.44772 9 6C9 6.55228 9.44772 7 10 7Z" fill="#CDD7DA"></path> </g></svg> -->

<!-- <svg viewBox="0 0 16 16" fill="none" xmlns="http://www.w3.org/2000/svg"><g id="SVGRepo_bgCarrier" stroke-width="0"></g><g id="SVGRepo_tracerCarrier" stroke-linecap="round" stroke-linejoin="round"></g><g id="SVGRepo_iconCarrier"> <path d="M1.51967 3.30803C0.748393 4.37143 0.232465 5.63209 0.0618896 7L15.9381 7C15.7675 5.63208 15.2516 4.37142 14.4803 3.30801C14.4387 3.3313 14.3965 3.3546 14.3538 3.3779C12.8684 4.1881 10.7045 5 7.99997 5C5.29547 5 3.13149 4.1881 1.64611 3.3779C1.60342 3.35461 1.56127 3.33131 1.51967 3.30803Z" fill="#000000"></path> <path d="M13.0562 1.80011C11.8114 2.42548 10.0975 3 7.99997 3C5.90247 3 4.18861 2.42549 2.94376 1.80013C4.32185 0.674887 6.08211 0 8 0C9.91787 0 11.6781 0.674881 13.0562 1.80011Z" fill="#000000"></path> <path d="M0.0618896 9C0.232466 10.3679 0.748398 11.6286 1.51968 12.692C1.56128 12.6687 1.60344 12.6454 1.64614 12.6221C3.13152 11.8119 5.2955 11 8 11C10.7045 11 12.8685 11.8119 14.3538 12.6221C14.3966 12.6454 14.4387 12.6687 14.4803 12.692C15.2516 11.6286 15.7675 10.3679 15.9381 9L0.0618896 9Z" fill="#CDD7DA"></path> <path d="M8 16C6.08212 16 4.32186 15.3251 2.94377 14.1999C4.18862 13.5745 5.90249 13 8 13C10.0975 13 11.8114 13.5745 13.0562 14.1999C11.6781 15.3251 9.91788 16 8 16Z" fill="#CDD7DA"></path> </g></svg> -->

<svg viewBox="0 0 32 32" xmlns="http://www.w3.org/2000/svg" fill="none" transform="rotate(-45)"><g id="SVGRepo_bgCarrier" stroke-width="0"></g><g id="SVGRepo_tracerCarrier" stroke-linecap="round" stroke-linejoin="round"></g><g id="SVGRepo_iconCarrier"> <path stroke="gainsboro" fill="gainsboro" stroke-linecap="round" stroke-linejoin="round" stroke-width="2" d="M24 14.172V10a2 2 0 00-2-2h-4.172a2 2 0 00-1.414.586l-8 8a2 2 0 000 2.828l4.172 4.172a2 2 0 002.828 0l8-8A2 2 0 0024 14.172z"></path> </g></svg>